<svg width="24" height="22" viewBox="0 0 24 22" fill="none" xmlns="http://www.w3.org/2000/svg">
<path d="M17.6385 0.784668C15.1973 0.784668 14.1656 1.94959 12.4654 1.94959C10.7223 1.94959 9.39265 0.793144 7.27714 0.793144C5.20644 0.793144 2.9983 2.05736 1.59603 4.21101C-0.372952 7.24805 -0.038733 12.9679 3.15027 17.8407C4.29097 19.5851 5.81433 21.5413 7.81238 21.5625H7.84871C9.58519 21.5625 10.101 20.4255 12.4908 20.4121H12.5272C14.8812 20.4121 15.3535 21.5559 17.0827 21.5559H17.119C19.1171 21.5347 20.7222 19.3671 21.8629 17.6294C22.6839 16.3797 22.9891 15.7525 23.6187 14.3387C19.0057 12.5877 18.2646 6.04801 22.8268 3.54076C21.4342 1.79701 19.4773 0.787089 17.6325 0.787089L17.6385 0.784668Z" fill="#2D3748"/>
</svg>
