<svg width="11" height="11" viewBox="0 0 11 11" fill="none" xmlns="http://www.w3.org/2000/svg">
<path d="M5.49973 3.62512C5.12889 3.62512 4.76637 3.73509 4.45803 3.94112C4.14969 4.14714 3.90937 4.43998 3.76745 4.78259C3.62554 5.1252 3.58841 5.5022 3.66075 5.86591C3.7331 6.22963 3.91168 6.56372 4.1739 6.82595C4.43612 7.08817 4.77022 7.26675 5.13393 7.33909C5.49765 7.41144 5.87465 7.37431 6.21726 7.23239C6.55987 7.09048 6.8527 6.85016 7.05873 6.54181C7.26476 6.23347 7.37472 5.87096 7.37472 5.50012C7.37324 5.0033 7.17522 4.52724 6.82391 4.17593C6.4726 3.82463 5.99655 3.6266 5.49973 3.62512ZM9.54785 5.50012C9.54687 5.67532 9.53403 5.85025 9.50941 6.02371L10.6506 6.91715C10.7003 6.95819 10.7338 7.01557 10.7451 7.07903C10.7564 7.14248 10.7447 7.20789 10.7122 7.26356L9.63269 9.12731C9.59988 9.18248 9.54865 9.22431 9.48804 9.24545C9.42742 9.26658 9.36129 9.26566 9.30129 9.24285L7.95949 8.70379C7.68009 8.91894 7.37433 9.0975 7.04965 9.23512L6.84902 10.6596C6.83779 10.7235 6.80475 10.7814 6.75555 10.8235C6.70635 10.8657 6.64403 10.8894 6.57926 10.8907H4.4202C4.3566 10.8895 4.2953 10.8667 4.2463 10.8262C4.19731 10.7856 4.16351 10.7296 4.15043 10.6674L3.9498 9.24285C3.62423 9.10683 3.31825 8.92799 3.03996 8.71106L1.69817 9.25012C1.63819 9.27295 1.57208 9.2739 1.51146 9.25281C1.45085 9.23172 1.39961 9.18994 1.36676 9.13481L0.287228 7.27129C0.254734 7.21563 0.243093 7.15022 0.254385 7.08676C0.265677 7.0233 0.299166 6.96593 0.348869 6.92489L1.49004 6.03145C1.4657 5.85536 1.45286 5.67788 1.4516 5.50012C1.45258 5.32492 1.46542 5.14999 1.49004 4.97653L0.348869 4.08309C0.299166 4.04205 0.265677 3.98467 0.254385 3.92121C0.243093 3.85776 0.254734 3.79235 0.287228 3.73668L1.36676 1.87293C1.39958 1.81776 1.4508 1.77593 1.51141 1.75479C1.57203 1.73366 1.63816 1.73458 1.69817 1.75739L3.03996 2.29645C3.31936 2.0813 3.62512 1.90274 3.9498 1.76512L4.15043 0.340591C4.16166 0.276782 4.1947 0.218853 4.2439 0.176703C4.2931 0.134553 4.35542 0.110798 4.4202 0.109497H6.57926C6.64285 0.110735 6.70415 0.133495 6.75315 0.174062C6.80214 0.214629 6.83594 0.270606 6.84902 0.332856L7.04965 1.75739C7.37563 1.89332 7.68201 2.07216 7.96066 2.28918L9.30129 1.75012C9.36127 1.72729 9.42737 1.72634 9.48799 1.74743C9.5486 1.76852 9.59984 1.8103 9.63269 1.86543L10.7122 3.72918C10.7447 3.78485 10.7564 3.85026 10.7451 3.91372C10.7338 3.97717 10.7003 4.03455 10.6506 4.07559L9.50941 4.96903C9.53374 5.14504 9.54658 5.32244 9.54785 5.50012Z" fill="#718096"/>
</svg>
