<svg width="13" height="13" viewBox="0 0 13 13" fill="none" xmlns="http://www.w3.org/2000/svg">
<path d="M11.9108 1.18465C11.9063 1.16306 11.8958 1.14319 11.8805 1.12736C11.8651 1.11154 11.8456 1.10041 11.8241 1.0953C10.3942 0.745689 7.09025 1.99154 5.30021 3.78084C4.98094 4.09753 4.68988 4.44144 4.43034 4.80867C3.87833 4.75985 3.32633 4.80062 2.85587 5.0057C1.52848 5.58992 1.14201 7.11434 1.03434 7.7701C1.02823 7.80599 1.03054 7.84281 1.04107 7.87766C1.0516 7.91251 1.07008 7.94445 1.09504 7.97095C1.12001 7.99745 1.15078 8.0178 1.18494 8.0304C1.2191 8.04299 1.25572 8.04749 1.29191 8.04354L3.4235 7.80843C3.42502 7.96914 3.43472 8.12966 3.45255 8.28939C3.46328 8.4003 3.51252 8.50396 3.59171 8.58235L4.41715 9.40584C4.49562 9.48493 4.59924 9.53415 4.71012 9.545C4.86895 9.56277 5.02858 9.57246 5.18839 9.57405L4.9545 11.703C4.9506 11.7391 4.95514 11.7757 4.96775 11.8099C4.98036 11.844 5.00071 11.8748 5.0272 11.8997C5.05369 11.9247 5.0856 11.9431 5.12043 11.9537C5.15526 11.9642 5.19206 11.9666 5.22794 11.9605C5.88248 11.8555 7.40958 11.4691 7.99039 10.1417C8.19547 9.67122 8.23746 9.1219 8.1901 8.57259C8.55822 8.31303 8.90303 8.02189 9.22062 7.70247C11.0163 5.91585 12.255 2.68563 11.9108 1.18465ZM7.42911 5.57113C7.26515 5.40727 7.15346 5.19846 7.10818 4.97112C7.0629 4.74378 7.08606 4.50811 7.17474 4.29393C7.26341 4.07976 7.41361 3.89669 7.60634 3.76789C7.79907 3.63909 8.02567 3.57034 8.25748 3.57034C8.48929 3.57034 8.71589 3.63909 8.90862 3.76789C9.10135 3.89669 9.25155 4.07976 9.34023 4.29393C9.4289 4.50811 9.45206 4.74378 9.40678 4.97112C9.3615 5.19846 9.24982 5.40727 9.08585 5.57113C8.97712 5.68001 8.848 5.76639 8.70586 5.82532C8.56372 5.88426 8.41136 5.91459 8.25748 5.91459C8.10361 5.91459 7.95124 5.88426 7.8091 5.82532C7.66697 5.76639 7.53784 5.68001 7.42911 5.57113Z" fill="white"/>
<path d="M4.36108 10.0023C4.22729 10.1364 4.01269 10.1886 3.75439 10.2333C3.17407 10.3322 2.66162 9.83069 2.76587 9.24402C2.80566 9.02161 2.92334 8.70984 2.99658 8.6366C3.01259 8.6209 3.02325 8.60055 3.02704 8.57845C3.03082 8.55635 3.02755 8.53362 3.01769 8.51348C3.00782 8.49335 2.99186 8.47683 2.97208 8.46628C2.95229 8.45573 2.92969 8.45168 2.90747 8.45471C2.58295 8.49442 2.28104 8.64155 2.0498 8.87268C1.47583 9.44714 1.42163 11.5787 1.42163 11.5787C1.42163 11.5787 3.55444 11.5245 4.12842 10.9501C4.36027 10.719 4.50758 10.4167 4.54663 10.0917C4.55566 9.98962 4.4314 9.92883 4.36108 10.0023Z" fill="white"/>
</svg>
