<svg width="10" height="10" viewBox="0 0 10 10" fill="none" xmlns="http://www.w3.org/2000/svg">
<path d="M4.18623 3.33935C4.18623 3.61864 4.18623 3.88935 4.27432 4.14286C3.34834 5.22997 0.903418 8.10243 0.675684 8.32157C0.630422 8.36218 0.594214 8.41186 0.569414 8.46738C0.544614 8.52291 0.531777 8.58303 0.531738 8.64384C0.531738 8.82645 0.643457 9.00263 0.737988 9.10145C0.879785 9.2497 1.48564 9.81044 1.59736 9.70302C1.92822 9.38075 1.99482 9.29481 2.13018 9.16161C2.33428 8.96181 2.10869 8.5536 2.17959 8.38817C2.25049 8.22274 2.32568 8.19052 2.44814 8.16473C2.57061 8.13895 2.7876 8.22704 2.95732 8.22919C3.13564 8.23134 3.23232 8.15614 3.36553 8.03153C3.47295 7.9327 3.55029 7.84032 3.55244 7.69638C3.55674 7.50302 3.27744 7.24735 3.48584 7.04325C3.69424 6.83915 3.99502 7.17645 4.21631 7.15067C4.4376 7.12489 4.70615 6.81767 4.73408 6.68661C4.76201 6.55556 4.48271 6.21825 4.52568 6.02704C4.54072 5.96259 4.67178 5.8122 4.77061 5.79071C4.86943 5.76923 5.30771 5.93895 5.40654 5.91747C5.52685 5.89169 5.6665 5.76493 5.78037 5.69403C6.11338 5.83798 6.41631 5.89599 6.80518 5.89599C8.27685 5.89599 9.46924 4.74872 9.46924 3.33505C9.46924 1.92138 8.27685 0.779053 6.80518 0.779053C5.3335 0.779053 4.18623 1.92567 4.18623 3.33935ZM8.09424 2.84155C8.09424 2.97753 8.05392 3.11045 7.97837 3.22351C7.90283 3.33657 7.79546 3.42468 7.66983 3.47672C7.54421 3.52875 7.40597 3.54237 7.27261 3.51584C7.13925 3.48931 7.01675 3.42384 6.9206 3.32769C6.82445 3.23154 6.75898 3.10904 6.73245 2.97568C6.70592 2.84231 6.71954 2.70408 6.77157 2.57846C6.82361 2.45283 6.91172 2.34546 7.02478 2.26992C7.13784 2.19437 7.27076 2.15405 7.40674 2.15405C7.58907 2.15405 7.76394 2.22649 7.89287 2.35542C8.0218 2.48435 8.09424 2.65922 8.09424 2.84155Z" fill="#2D3748"/>
</svg>
