<svg width="22" height="22" viewBox="0 0 22 22" fill="none" xmlns="http://www.w3.org/2000/svg">
<path d="M21.18 9.38163L21.074 8.9321H11.3034V13.0674H17.1412C16.5351 15.9455 13.7226 17.4605 11.4253 17.4605C9.75373 17.4605 7.9917 16.7574 6.82545 15.6272C6.21014 15.0214 5.72035 14.3002 5.38414 13.5049C5.04792 12.7096 4.87187 11.8557 4.86608 10.9923C4.86608 9.25038 5.64889 7.50803 6.78795 6.36194C7.92701 5.21585 9.64733 4.5746 11.3578 4.5746C13.3167 4.5746 14.7206 5.61475 15.2456 6.08913L18.1842 3.166C17.3222 2.4085 14.954 0.499756 11.2631 0.499756C8.41545 0.499756 5.68498 1.59054 3.68905 3.57991C1.71936 5.53882 0.699829 8.37147 0.699829 10.9998C0.699829 13.628 1.66452 16.3191 3.57327 18.2935C5.6128 20.3991 8.50123 21.4997 11.4755 21.4997C14.1815 21.4997 16.7465 20.4394 18.5747 18.5157C20.3719 16.6219 21.3014 14.0016 21.3014 11.2548C21.3014 10.0983 21.1851 9.41163 21.18 9.38163Z" fill="#2D3748"/>
</svg>
