<svg width="13" height="13" viewBox="0 0 13 13" fill="none" xmlns="http://www.w3.org/2000/svg">
<path d="M12.1292 11.0959L9.37262 8.33935C10.0363 7.45586 10.3945 6.38047 10.3933 5.27549C10.3933 2.45303 8.09703 0.156738 5.27457 0.156738C2.45211 0.156738 0.155823 2.45303 0.155823 5.27549C0.155823 8.09795 2.45211 10.3942 5.27457 10.3942C6.37955 10.3954 7.45495 10.0372 8.33844 9.37353L11.095 12.1301C11.2345 12.2548 11.4165 12.3214 11.6036 12.3162C11.7907 12.3109 11.9687 12.2343 12.101 12.1019C12.2333 11.9696 12.31 11.7916 12.3152 11.6045C12.3205 11.4174 12.2539 11.2354 12.1292 11.0959ZM1.61832 5.27549C1.61832 4.55235 1.83276 3.84545 2.23451 3.24418C2.63626 2.64292 3.20729 2.17429 3.87538 1.89755C4.54348 1.62082 5.27863 1.54841 5.98787 1.68949C6.69711 1.83057 7.34859 2.17879 7.85993 2.69013C8.37126 3.20146 8.71949 3.85294 8.86057 4.56219C9.00164 5.27143 8.92924 6.00658 8.6525 6.67467C8.37577 7.34276 7.90714 7.91379 7.30587 8.31555C6.70461 8.7173 5.99771 8.93173 5.27457 8.93173C4.30523 8.93057 3.37592 8.54499 2.6905 7.85956C2.00507 7.17413 1.61949 6.24483 1.61832 5.27549Z" fill="#2D3748"/>
</svg>
