<svg width="13" height="13" viewBox="0 0 13 13" fill="none" xmlns="http://www.w3.org/2000/svg">
<path d="M11.7136 3.19282C11.6855 3.13811 11.6448 3.09082 11.595 3.0548C11.5451 3.01878 11.4874 2.99504 11.4266 2.98552C11.3659 2.97601 11.3037 2.98098 11.2452 3.00003C11.1867 3.01908 11.1336 3.05168 11.0901 3.09516L9.59006 4.59614C9.51643 4.6687 9.4172 4.70938 9.31382 4.70938C9.21044 4.70938 9.11121 4.6687 9.03757 4.59614L8.38914 3.94672C8.35285 3.91045 8.32407 3.86738 8.30444 3.81999C8.2848 3.77259 8.27469 3.72178 8.27469 3.67048C8.27469 3.61917 8.2848 3.56837 8.30444 3.52097C8.32407 3.47357 8.35285 3.43051 8.38914 3.39423L9.88279 1.90034C9.92756 1.85557 9.96079 1.80058 9.97959 1.74012C9.9984 1.67966 10.0022 1.61553 9.99074 1.55326C9.97926 1.49099 9.95281 1.43245 9.91367 1.38267C9.87454 1.3329 9.82389 1.29338 9.76609 1.26753C8.63792 0.763131 7.22971 1.02631 6.34177 1.90766C5.58738 2.65669 5.36253 3.8271 5.72532 5.11884C5.74488 5.18773 5.74499 5.26068 5.72565 5.32963C5.7063 5.39857 5.66824 5.46082 5.6157 5.50947L1.55125 9.22163C1.39291 9.36379 1.26519 9.53672 1.17589 9.72987C1.08658 9.92303 1.03756 10.1323 1.03182 10.3451C1.02608 10.5578 1.06373 10.7694 1.14248 10.9671C1.22123 11.1648 1.33943 11.3444 1.48987 11.4949C1.6403 11.6454 1.81982 11.7637 2.01748 11.8425C2.21513 11.9214 2.42677 11.9591 2.6395 11.9534C2.85222 11.9478 3.06156 11.8989 3.25475 11.8097C3.44794 11.7204 3.62093 11.5928 3.76316 11.4345L7.51511 7.36103C7.56306 7.30916 7.62426 7.27136 7.6921 7.2517C7.75995 7.23204 7.83187 7.23127 7.90012 7.24946C8.26788 7.35022 8.64723 7.4025 9.02854 7.40497C9.84397 7.40497 10.5595 7.14106 11.0757 6.63251C12.0315 5.69086 12.1772 4.0937 11.7136 3.19282ZM2.67893 11.1672C2.51814 11.1847 2.35587 11.1519 2.2145 11.0733C2.07314 10.9947 1.95966 10.8742 1.88972 10.7284C1.81978 10.5825 1.79684 10.4186 1.82405 10.2591C1.85126 10.0997 1.92729 9.95261 2.04164 9.83821C2.15599 9.72382 2.30303 9.64774 2.46246 9.62048C2.62189 9.59321 2.78585 9.6161 2.93172 9.68599C3.07759 9.75587 3.19817 9.86931 3.27682 10.0106C3.35548 10.152 3.38832 10.3142 3.37083 10.475C3.35158 10.652 3.2725 10.817 3.14669 10.9429C3.02087 11.0687 2.85585 11.1479 2.67893 11.1672Z" fill="white"/>
</svg>
