<svg width="9" height="10" viewBox="0 0 9 10" fill="none" xmlns="http://www.w3.org/2000/svg">
<path d="M4.5 0.77832C2.03596 0.77832 0.03125 2.78303 0.03125 5.24707C0.03125 7.71111 2.03596 9.71582 4.5 9.71582C6.96404 9.71582 8.96875 7.71111 8.96875 5.24707C8.96875 2.78303 6.96404 0.77832 4.5 0.77832ZM3.42105 3.28813C3.69326 2.99959 4.07633 2.84082 4.5 2.84082C4.92367 2.84082 5.3033 3.00066 5.57658 3.2907C5.85351 3.58461 5.98822 3.97949 5.95643 4.40402C5.89283 5.24707 5.23971 5.93457 4.5 5.93457C3.76029 5.93457 3.10588 5.24707 3.04357 4.40381C3.01199 3.97584 3.14648 3.57967 3.42105 3.28813ZM4.5 9.02832C3.99522 9.02865 3.49551 8.92762 3.0305 8.73121C2.5655 8.5348 2.14467 8.24702 1.79297 7.88492C1.9944 7.59767 2.25105 7.35343 2.54793 7.16648C3.09557 6.81543 3.78865 6.62207 4.5 6.62207C5.21135 6.62207 5.90443 6.81543 6.45143 7.16648C6.74855 7.35335 7.00543 7.59759 7.20703 7.88492C6.85536 8.24706 6.43454 8.53487 5.96953 8.73128C5.50451 8.92769 5.00479 9.0287 4.5 9.02832Z" fill="#2D3748"/>
</svg>
