<svg width="15" height="15" viewBox="0 0 15 15" fill="none" xmlns="http://www.w3.org/2000/svg">
<path d="M7.49976 1.40604C4.1397 1.40604 1.40601 4.13973 1.40601 7.49979C1.40601 10.8598 4.1397 13.5935 7.49976 13.5935C10.8598 13.5935 13.5935 10.8598 13.5935 7.49979C13.5935 4.13973 10.8598 1.40604 7.49976 1.40604ZM10.6711 5.4575L6.73364 10.145C6.69045 10.1964 6.63671 10.238 6.57605 10.2669C6.51539 10.2957 6.44924 10.3112 6.38208 10.3123H6.37417C6.30847 10.3123 6.2435 10.2984 6.18349 10.2717C6.12348 10.2449 6.06977 10.2059 6.02583 10.157L4.33833 8.28201C4.29547 8.23656 4.26214 8.18299 4.24028 8.12447C4.21842 8.06595 4.20847 8.00364 4.21104 7.94122C4.2136 7.8788 4.22861 7.81753 4.2552 7.76099C4.28178 7.70446 4.31939 7.6538 4.36583 7.61201C4.41227 7.57022 4.46659 7.53814 4.52561 7.51764C4.58462 7.49715 4.64714 7.48866 4.70948 7.49267C4.77183 7.49668 4.83274 7.51311 4.88864 7.541C4.94454 7.56888 4.99431 7.60766 5.03501 7.65506L6.36187 9.12928L9.95337 4.85457C10.0339 4.76143 10.1479 4.70373 10.2707 4.69395C10.3934 4.68417 10.5151 4.72309 10.6094 4.8023C10.7037 4.8815 10.763 4.99464 10.7746 5.11724C10.7861 5.23985 10.749 5.36207 10.6711 5.4575Z" fill="#68D391"/>
</svg>
